<?xml version="1.0" encoding="UTF-8"?>
<svg xmlns="http://www.w3.org/2000/svg" xmlns:xlink="http://www.w3.org/1999/xlink" width="48pt" height="48pt" viewBox="0 0 48 48" version="1.1">
<defs>
<radialGradient id="radial0" gradientUnits="userSpaceOnUse" cx="158.429" cy="578.088" fx="158.429" fy="578.088" r="65" gradientTransform="matrix(0,-0.720698,0.670489,0,-374.678828,165.451714)">
<stop offset="0" style="stop-color:rgb(100%,86.666667%,33.333333%);stop-opacity:1;"/>
<stop offset="0.1" style="stop-color:rgb(100%,86.666667%,33.333333%);stop-opacity:1;"/>
<stop offset="0.5" style="stop-color:rgb(100%,32.941176%,24.313725%);stop-opacity:1;"/>
<stop offset="1" style="stop-color:rgb(78.431373%,21.568627%,67.058824%);stop-opacity:1;"/>
</radialGradient>
<radialGradient id="radial1" gradientUnits="userSpaceOnUse" cx="147.694" cy="473.455" fx="147.694" fy="473.455" r="65" gradientTransform="matrix(0.063249,0.315889,-1.302433,0.260785,599.74619,-166.355323)">
<stop offset="0" style="stop-color:rgb(21.568627%,44.313725%,78.431373%);stop-opacity:1;"/>
<stop offset="0.128" style="stop-color:rgb(21.568627%,44.313725%,78.431373%);stop-opacity:1;"/>
<stop offset="1" style="stop-color:rgb(40%,0%,100%);stop-opacity:0;"/>
</radialGradient>
</defs>
<g id="surface1">
<path style=" stroke:none;fill-rule:nonzero;fill:url(#radial0);" d="M 24.011719 0.363281 C 14.140625 0.363281 11.253906 0.375 10.695312 0.421875 C 8.667969 0.589844 7.410156 0.910156 6.035156 1.59375 C 4.976562 2.117188 4.144531 2.726562 3.320312 3.582031 C 1.820312 5.136719 0.910156 7.054688 0.582031 9.328125 C 0.421875 10.433594 0.375 10.660156 0.367188 16.308594 C 0.363281 18.1875 0.367188 20.667969 0.367188 23.988281 C 0.367188 33.851562 0.375 36.734375 0.421875 37.292969 C 0.585938 39.265625 0.894531 40.503906 1.550781 41.859375 C 2.800781 44.457031 5.191406 46.40625 8.003906 47.132812 C 8.980469 47.382812 10.054688 47.523438 11.4375 47.589844 C 12.023438 47.613281 17.992188 47.632812 23.960938 47.632812 C 29.933594 47.632812 35.902344 47.625 36.472656 47.59375 C 38.074219 47.519531 39.003906 47.394531 40.03125 47.128906 C 42.863281 46.398438 45.207031 44.480469 46.484375 41.847656 C 47.125 40.523438 47.453125 39.234375 47.597656 37.367188 C 47.628906 36.960938 47.644531 30.46875 47.644531 23.984375 C 47.644531 17.496094 47.628906 11.015625 47.597656 10.609375 C 47.449219 8.710938 47.121094 7.433594 46.460938 6.085938 C 45.917969 4.980469 45.3125 4.15625 44.4375 3.3125 C 42.871094 1.820312 40.960938 0.910156 38.679688 0.582031 C 37.578125 0.421875 37.355469 0.375 31.707031 0.363281 Z M 24.011719 0.363281 "/>
<path style=" stroke:none;fill-rule:nonzero;fill:url(#radial1);" d="M 24.011719 0.363281 C 14.140625 0.363281 11.253906 0.375 10.695312 0.421875 C 8.667969 0.589844 7.410156 0.910156 6.035156 1.59375 C 4.976562 2.117188 4.144531 2.726562 3.320312 3.582031 C 1.820312 5.136719 0.910156 7.054688 0.582031 9.328125 C 0.421875 10.433594 0.375 10.660156 0.367188 16.308594 C 0.363281 18.1875 0.367188 20.667969 0.367188 23.988281 C 0.367188 33.851562 0.375 36.734375 0.421875 37.292969 C 0.585938 39.265625 0.894531 40.503906 1.550781 41.859375 C 2.800781 44.457031 5.191406 46.40625 8.003906 47.132812 C 8.980469 47.382812 10.054688 47.523438 11.4375 47.589844 C 12.023438 47.613281 17.992188 47.632812 23.960938 47.632812 C 29.933594 47.632812 35.902344 47.625 36.472656 47.59375 C 38.074219 47.519531 39.003906 47.394531 40.03125 47.128906 C 42.863281 46.398438 45.207031 44.480469 46.484375 41.847656 C 47.125 40.523438 47.453125 39.234375 47.597656 37.367188 C 47.628906 36.960938 47.644531 30.46875 47.644531 23.984375 C 47.644531 17.496094 47.628906 11.015625 47.597656 10.609375 C 47.449219 8.710938 47.121094 7.433594 46.460938 6.085938 C 45.917969 4.980469 45.3125 4.15625 44.4375 3.3125 C 42.871094 1.820312 40.960938 0.910156 38.679688 0.582031 C 37.578125 0.421875 37.355469 0.375 31.707031 0.363281 Z M 24.011719 0.363281 "/>
<path style=" stroke:none;fill-rule:nonzero;fill:rgb(100%,100%,100%);fill-opacity:1;" d="M 24 6.546875 C 19.261719 6.546875 18.664062 6.566406 16.804688 6.652344 C 14.945312 6.738281 13.675781 7.03125 12.566406 7.460938 C 11.417969 7.90625 10.445312 8.503906 9.476562 9.476562 C 8.503906 10.445312 7.910156 11.417969 7.460938 12.566406 C 7.027344 13.675781 6.734375 14.945312 6.648438 16.804688 C 6.566406 18.664062 6.546875 19.261719 6.546875 24 C 6.546875 28.738281 6.566406 29.332031 6.652344 31.195312 C 6.734375 33.054688 7.03125 34.320312 7.460938 35.429688 C 7.90625 36.578125 8.503906 37.554688 9.476562 38.523438 C 10.445312 39.492188 11.417969 40.09375 12.566406 40.539062 C 13.675781 40.96875 14.945312 41.261719 16.800781 41.347656 C 18.664062 41.433594 19.257812 41.453125 24 41.453125 C 28.738281 41.453125 29.332031 41.433594 31.195312 41.347656 C 33.050781 41.261719 34.320312 40.96875 35.433594 40.539062 C 36.578125 40.09375 37.550781 39.492188 38.523438 38.523438 C 39.492188 37.554688 40.089844 36.578125 40.535156 35.433594 C 40.964844 34.320312 41.261719 33.054688 41.347656 31.195312 C 41.429688 29.332031 41.453125 28.738281 41.453125 24 C 41.453125 19.261719 41.429688 18.664062 41.347656 16.804688 C 41.261719 14.945312 40.964844 13.675781 40.535156 12.566406 C 40.089844 11.417969 39.492188 10.445312 38.523438 9.476562 C 37.550781 8.503906 36.582031 7.90625 35.429688 7.460938 C 34.320312 7.03125 33.050781 6.738281 31.191406 6.652344 C 29.328125 6.566406 28.738281 6.546875 23.996094 6.546875 Z M 22.433594 9.691406 C 22.898438 9.691406 23.417969 9.691406 24 9.691406 C 28.660156 9.691406 29.214844 9.707031 31.054688 9.792969 C 32.753906 9.871094 33.679688 10.152344 34.292969 10.394531 C 35.109375 10.710938 35.691406 11.085938 36.300781 11.699219 C 36.910156 12.308594 37.289062 12.890625 37.605469 13.707031 C 37.84375 14.320312 38.128906 15.242188 38.207031 16.945312 C 38.289062 18.785156 38.308594 19.339844 38.308594 23.996094 C 38.308594 28.652344 38.289062 29.207031 38.207031 31.046875 C 38.128906 32.75 37.84375 33.671875 37.605469 34.285156 C 37.289062 35.101562 36.910156 35.679688 36.300781 36.292969 C 35.6875 36.902344 35.109375 37.28125 34.292969 37.597656 C 33.679688 37.835938 32.753906 38.121094 31.054688 38.199219 C 29.214844 38.28125 28.660156 38.300781 24 38.300781 C 19.339844 38.300781 18.789062 38.28125 16.949219 38.199219 C 15.246094 38.121094 14.324219 37.835938 13.707031 37.597656 C 12.890625 37.28125 12.308594 36.902344 11.699219 36.292969 C 11.089844 35.679688 10.710938 35.101562 10.394531 34.285156 C 10.15625 33.671875 9.871094 32.746094 9.792969 31.046875 C 9.707031 29.207031 9.691406 28.652344 9.691406 23.992188 C 9.691406 19.332031 9.707031 18.78125 9.792969 16.941406 C 9.871094 15.238281 10.15625 14.316406 10.394531 13.699219 C 10.710938 12.886719 11.089844 12.304688 11.699219 11.691406 C 12.308594 11.082031 12.890625 10.703125 13.707031 10.386719 C 14.320312 10.148438 15.246094 9.863281 16.949219 9.785156 C 18.558594 9.710938 19.183594 9.691406 22.433594 9.6875 Z M 33.316406 12.589844 C 32.160156 12.589844 31.222656 13.527344 31.222656 14.683594 C 31.222656 15.839844 32.160156 16.777344 33.316406 16.777344 C 34.472656 16.777344 35.410156 15.839844 35.410156 14.683594 C 35.410156 13.527344 34.472656 12.589844 33.316406 12.589844 Z M 24 15.035156 C 19.050781 15.035156 15.039062 19.050781 15.039062 24 C 15.039062 28.949219 19.050781 32.960938 24 32.960938 C 28.949219 32.960938 32.960938 28.949219 32.960938 24 C 32.960938 19.050781 28.949219 15.035156 24 15.035156 Z M 24 18.183594 C 27.214844 18.183594 29.820312 20.785156 29.820312 24 C 29.820312 27.214844 27.214844 29.816406 24 29.816406 C 20.789062 29.816406 18.183594 27.214844 18.183594 24 C 18.183594 20.785156 20.789062 18.183594 24 18.183594 Z M 24 18.183594 "/>
</g>
</svg>
